<svg width="2048" height="2958" viewBox="0 0 2048 2958" fill="none" xmlns="http://www.w3.org/2000/svg">
<path d="M931.336 2735.6L925.096 2717.76L919.456 2735.44L917.936 2735.6L909.536 2712.28C908.763 2710.57 907.75 2709.72 906.496 2709.72V2708.48H916.536V2709.72C915.336 2709.72 914.523 2709.85 914.096 2710.12C913.696 2710.36 913.496 2710.73 913.496 2711.24C913.496 2711.37 913.523 2711.53 913.576 2711.72C913.656 2711.88 913.736 2712.07 913.816 2712.28L919.576 2729.36L924.336 2715.2L922.776 2711.08C922.616 2710.63 922.31 2710.29 921.856 2710.08C921.403 2709.84 920.75 2709.72 919.896 2709.72V2708.48H930.256V2709.72C928.283 2709.72 927.296 2710.27 927.296 2711.36C927.296 2711.47 927.323 2711.63 927.376 2711.84L933.176 2729.36L938.016 2713.84C938.15 2713.47 938.23 2713.12 938.256 2712.8C938.283 2712.48 938.296 2712.16 938.296 2711.84C938.296 2710.43 937.19 2709.72 934.976 2709.72V2708.48H943.656V2709.72C942.03 2709.72 940.816 2711.04 940.016 2713.68L932.856 2735.44L931.336 2735.6ZM955.837 2734.08C957.33 2734.08 958.61 2733.77 959.677 2733.16C960.744 2732.52 961.624 2731.65 962.317 2730.56C963.01 2729.47 963.517 2728.19 963.837 2726.72C964.184 2725.23 964.357 2723.63 964.357 2721.92C964.357 2720.32 964.184 2718.77 963.837 2717.28C963.517 2715.79 962.997 2714.47 962.277 2713.32C961.557 2712.15 960.61 2711.21 959.437 2710.52C958.29 2709.8 956.89 2709.44 955.237 2709.44C953.717 2709.44 952.424 2709.77 951.357 2710.44C950.317 2711.11 949.464 2712 948.797 2713.12C948.157 2714.24 947.69 2715.53 947.397 2717C947.13 2718.47 946.997 2720 946.997 2721.6C946.997 2723.36 947.17 2725 947.517 2726.52C947.864 2728.04 948.397 2729.36 949.117 2730.48C949.837 2731.6 950.757 2732.48 951.877 2733.12C952.997 2733.76 954.317 2734.08 955.837 2734.08ZM955.517 2735.6C953.624 2735.6 951.877 2735.25 950.277 2734.56C948.677 2733.84 947.29 2732.87 946.117 2731.64C944.97 2730.39 944.064 2728.93 943.397 2727.28C942.757 2725.6 942.437 2723.81 942.437 2721.92C942.437 2720.16 942.744 2718.45 943.357 2716.8C943.97 2715.12 944.85 2713.64 945.997 2712.36C947.144 2711.05 948.517 2710.01 950.117 2709.24C951.744 2708.44 953.544 2708.04 955.517 2708.04C957.464 2708.04 959.25 2708.39 960.877 2709.08C962.53 2709.75 963.944 2710.69 965.117 2711.92C966.317 2713.12 967.25 2714.55 967.917 2716.2C968.584 2717.85 968.917 2719.65 968.917 2721.6C968.917 2723.31 968.597 2725 967.957 2726.68C967.317 2728.36 966.41 2729.87 965.237 2731.2C964.09 2732.51 962.69 2733.57 961.037 2734.4C959.384 2735.2 957.544 2735.6 955.517 2735.6ZM983.481 2720.52C984.281 2720.52 985.054 2720.47 985.801 2720.36C986.547 2720.25 987.214 2720.01 987.801 2719.64C988.387 2719.27 988.854 2718.73 989.201 2718.04C989.574 2717.35 989.761 2716.4 989.761 2715.2C989.761 2714.19 989.574 2713.35 989.201 2712.68C988.854 2712.01 988.387 2711.49 987.801 2711.12C987.241 2710.72 986.614 2710.44 985.921 2710.28C985.227 2710.12 984.547 2710.04 983.881 2710.04H981.961C980.947 2710.04 980.441 2710.79 980.441 2712.28V2719.92C980.547 2720.32 980.867 2720.52 981.401 2720.52H983.481ZM997.841 2731.52C997.841 2731.84 997.761 2732.23 997.601 2732.68C997.467 2733.13 997.241 2733.56 996.921 2733.96C996.627 2734.36 996.254 2734.71 995.801 2735C995.374 2735.29 994.881 2735.44 994.321 2735.44C992.694 2735.44 991.494 2735.17 990.721 2734.64C989.947 2734.08 989.374 2733.19 989.001 2731.96C988.681 2730.95 988.361 2729.87 988.041 2728.72C987.721 2727.55 987.334 2726.48 986.881 2725.52C986.454 2724.53 985.921 2723.72 985.281 2723.08C984.641 2722.41 983.841 2722.08 982.881 2722.08H981.681C980.961 2722.08 980.547 2722.23 980.441 2722.52V2731.2C980.441 2732.93 981.667 2733.8 984.121 2733.8V2735H972.841V2733.8C975.187 2733.8 976.361 2732.93 976.361 2731.2V2712.28C976.361 2710.57 975.094 2709.72 972.561 2709.72V2708.48H977.561C978.441 2708.48 979.187 2708.48 979.801 2708.48C980.414 2708.45 981.001 2708.43 981.561 2708.4C982.147 2708.37 982.761 2708.36 983.401 2708.36C984.067 2708.33 984.867 2708.32 985.801 2708.32C986.947 2708.32 988.027 2708.49 989.041 2708.84C990.054 2709.16 990.921 2709.61 991.641 2710.2C992.387 2710.79 992.974 2711.48 993.401 2712.28C993.827 2713.08 994.041 2713.95 994.041 2714.88C994.041 2715.81 993.867 2716.64 993.521 2717.36C993.174 2718.08 992.681 2718.71 992.041 2719.24C991.427 2719.77 990.694 2720.23 989.841 2720.6C988.987 2720.97 988.041 2721.27 987.001 2721.48V2721.6C988.281 2722.21 989.334 2722.99 990.161 2723.92C991.014 2724.83 991.587 2725.71 991.881 2726.56C992.041 2727.09 992.227 2727.73 992.441 2728.48C992.654 2729.23 992.894 2729.93 993.161 2730.6C993.454 2731.27 993.787 2731.84 994.161 2732.32C994.534 2732.77 994.987 2733 995.521 2733C996.161 2733 996.627 2732.4 996.921 2731.2L997.841 2731.52ZM1016.08 2735V2733.8C1017.6 2733.8 1018.36 2733.59 1018.36 2733.16C1018.36 2732.81 1018.01 2732.16 1017.32 2731.2L1010.12 2721.92L1008.32 2723.56C1008.03 2723.83 1007.76 2724.13 1007.52 2724.48C1007.31 2724.83 1007.16 2725.24 1007.08 2725.72V2731.04C1007.08 2732.88 1008.41 2733.8 1011.08 2733.8V2735H999.481V2733.8C1001.93 2733.8 1003.16 2732.88 1003.16 2731.04V2712.64C1003.16 2710.69 1001.84 2709.72 999.201 2709.72V2708.48H1010.6V2709.72C1008.25 2709.72 1007.08 2710.69 1007.08 2712.64V2722.36L1016.4 2713.52C1017.01 2712.96 1017.41 2712.52 1017.6 2712.2C1017.81 2711.85 1017.92 2711.39 1017.92 2710.8C1017.92 2710.08 1017 2709.72 1015.16 2709.72V2708.48H1025.52V2709.72C1024.72 2709.8 1024.05 2709.92 1023.52 2710.08C1023.01 2710.21 1022.53 2710.43 1022.08 2710.72C1021.63 2710.99 1021.15 2711.36 1020.64 2711.84C1020.13 2712.29 1019.48 2712.91 1018.68 2713.68L1013.04 2719.16L1022.16 2731.04C1022.53 2731.44 1022.88 2731.81 1023.2 2732.16C1023.52 2732.51 1023.85 2732.8 1024.2 2733.04C1024.57 2733.28 1024.97 2733.47 1025.4 2733.6C1025.85 2733.73 1026.4 2733.8 1027.04 2733.8V2735H1016.08ZM1050.79 2735.6L1044.55 2717.76L1038.91 2735.44L1037.39 2735.6L1028.99 2712.28C1028.22 2710.57 1027.2 2709.72 1025.95 2709.72V2708.48H1035.99V2709.72C1034.79 2709.72 1033.98 2709.85 1033.55 2710.12C1033.15 2710.36 1032.95 2710.73 1032.95 2711.24C1032.95 2711.37 1032.98 2711.53 1033.03 2711.72C1033.11 2711.88 1033.19 2712.07 1033.27 2712.28L1039.03 2729.36L1043.79 2715.2L1042.23 2711.08C1042.07 2710.63 1041.76 2710.29 1041.31 2710.08C1040.86 2709.84 1040.2 2709.72 1039.35 2709.72V2708.48H1049.71V2709.72C1047.74 2709.72 1046.75 2710.27 1046.75 2711.36C1046.75 2711.47 1046.78 2711.63 1046.83 2711.84L1052.63 2729.36L1057.47 2713.84C1057.6 2713.47 1057.68 2713.12 1057.71 2712.8C1057.74 2712.48 1057.75 2712.16 1057.75 2711.84C1057.75 2710.43 1056.64 2709.72 1054.43 2709.72V2708.48H1063.11V2709.72C1061.48 2709.72 1060.27 2711.04 1059.47 2713.68L1052.31 2735.44L1050.79 2735.6ZM1064.87 2735V2733.8C1067.33 2733.8 1068.55 2732.93 1068.55 2731.2V2713.08C1068.55 2710.84 1067.23 2709.72 1064.59 2709.72V2708.48H1085.59L1085.91 2715.96L1084.67 2716.12C1084.43 2714.68 1084.07 2713.56 1083.59 2712.76C1083.11 2711.96 1082.53 2711.37 1081.83 2711C1081.17 2710.6 1080.39 2710.37 1079.51 2710.32C1078.63 2710.24 1077.67 2710.2 1076.63 2710.2H1075.51C1073.49 2710.2 1072.47 2710.8 1072.47 2712V2719.16C1072.47 2719.96 1072.79 2720.36 1073.43 2720.36H1074.79C1075.46 2720.36 1076.07 2720.33 1076.63 2720.28C1077.22 2720.2 1077.73 2720.03 1078.15 2719.76C1078.61 2719.47 1078.97 2719.04 1079.23 2718.48C1079.53 2717.89 1079.73 2717.11 1079.83 2716.12H1081.31V2726.48H1079.83C1079.73 2725.49 1079.57 2724.72 1079.35 2724.16C1079.14 2723.57 1078.83 2723.13 1078.43 2722.84C1078.03 2722.52 1077.54 2722.32 1076.95 2722.24C1076.37 2722.13 1075.65 2722.08 1074.79 2722.08H1074.31C1073.09 2722.08 1072.47 2722.52 1072.47 2723.4V2731.04C1072.47 2732.56 1073.54 2733.32 1075.67 2733.32H1076.91C1078.59 2733.32 1079.94 2733.2 1080.95 2732.96C1081.99 2732.69 1082.83 2732.29 1083.47 2731.76C1084.11 2731.2 1084.62 2730.51 1084.99 2729.68C1085.39 2728.85 1085.79 2727.88 1086.19 2726.76L1087.27 2727.08L1086.19 2735H1064.87ZM1104.13 2735V2733.8C1104.51 2733.75 1104.89 2733.69 1105.29 2733.64C1105.72 2733.59 1106.09 2733.52 1106.41 2733.44C1106.76 2733.36 1107.04 2733.27 1107.25 2733.16C1107.49 2733.03 1107.61 2732.88 1107.61 2732.72C1107.59 2732.61 1107.56 2732.47 1107.53 2732.28C1107.53 2732.07 1107.47 2731.81 1107.33 2731.52L1105.53 2726.6C1105.24 2725.91 1104.43 2725.56 1103.09 2725.56H1097.13C1096.12 2725.56 1095.51 2725.91 1095.29 2726.6L1093.93 2730.76C1093.83 2731 1093.77 2731.35 1093.77 2731.8C1093.77 2733.03 1094.95 2733.64 1097.29 2733.64V2735H1088.29V2733.64C1089.07 2733.59 1089.72 2733.32 1090.25 2732.84C1090.81 2732.36 1091.28 2731.67 1091.65 2730.76L1101.25 2707.88L1102.45 2708.36L1111.93 2732.12C1112.31 2732.68 1112.6 2733.03 1112.81 2733.16C1112.87 2733.21 1113.08 2733.29 1113.45 2733.4C1113.85 2733.48 1114.4 2733.61 1115.09 2733.8V2735H1104.13ZM1100.65 2713.52L1097.13 2721.92C1096.84 2722.56 1096.69 2723.01 1096.69 2723.28C1096.69 2723.68 1097.19 2723.88 1098.17 2723.88H1103.21C1104.01 2723.88 1104.41 2723.72 1104.41 2723.4C1104.41 2723.27 1104.27 2722.83 1103.97 2722.08L1100.65 2713.52ZM1127.54 2720.52C1128.34 2720.52 1129.12 2720.47 1129.86 2720.36C1130.61 2720.25 1131.28 2720.01 1131.86 2719.64C1132.45 2719.27 1132.92 2718.73 1133.26 2718.04C1133.64 2717.35 1133.82 2716.4 1133.82 2715.2C1133.82 2714.19 1133.64 2713.35 1133.26 2712.68C1132.92 2712.01 1132.45 2711.49 1131.86 2711.12C1131.3 2710.72 1130.68 2710.44 1129.98 2710.28C1129.29 2710.12 1128.61 2710.04 1127.94 2710.04H1126.02C1125.01 2710.04 1124.5 2710.79 1124.5 2712.28V2719.92C1124.61 2720.32 1124.93 2720.52 1125.46 2720.52H1127.54ZM1141.9 2731.52C1141.9 2731.84 1141.82 2732.23 1141.66 2732.68C1141.53 2733.13 1141.3 2733.56 1140.98 2733.96C1140.69 2734.36 1140.32 2734.71 1139.86 2735C1139.44 2735.29 1138.94 2735.44 1138.38 2735.44C1136.76 2735.44 1135.56 2735.17 1134.78 2734.64C1134.01 2734.08 1133.44 2733.19 1133.06 2731.96C1132.74 2730.95 1132.42 2729.87 1132.1 2728.72C1131.78 2727.55 1131.4 2726.48 1130.94 2725.52C1130.52 2724.53 1129.98 2723.72 1129.34 2723.08C1128.7 2722.41 1127.9 2722.08 1126.94 2722.08H1125.74C1125.02 2722.08 1124.61 2722.23 1124.5 2722.52V2731.2C1124.5 2732.93 1125.73 2733.8 1128.18 2733.8V2735H1116.9V2733.8C1119.25 2733.8 1120.42 2732.93 1120.42 2731.2V2712.28C1120.42 2710.57 1119.16 2709.72 1116.62 2709.72V2708.48H1121.62C1122.5 2708.48 1123.25 2708.48 1123.86 2708.48C1124.48 2708.45 1125.06 2708.43 1125.62 2708.4C1126.21 2708.37 1126.82 2708.36 1127.46 2708.36C1128.13 2708.33 1128.93 2708.32 1129.86 2708.32C1131.01 2708.32 1132.09 2708.49 1133.1 2708.84C1134.12 2709.16 1134.98 2709.61 1135.7 2710.2C1136.45 2710.79 1137.04 2711.48 1137.46 2712.28C1137.89 2713.08 1138.1 2713.95 1138.1 2714.88C1138.1 2715.81 1137.93 2716.64 1137.58 2717.36C1137.24 2718.08 1136.74 2718.71 1136.1 2719.24C1135.49 2719.77 1134.76 2720.23 1133.9 2720.6C1133.05 2720.97 1132.1 2721.27 1131.06 2721.48V2721.6C1132.34 2722.21 1133.4 2722.99 1134.22 2723.92C1135.08 2724.83 1135.65 2725.71 1135.94 2726.56C1136.1 2727.09 1136.29 2727.73 1136.5 2728.48C1136.72 2729.23 1136.96 2729.93 1137.22 2730.6C1137.52 2731.27 1137.85 2731.84 1138.22 2732.32C1138.6 2732.77 1139.05 2733 1139.58 2733C1140.22 2733 1140.69 2732.4 1140.98 2731.2L1141.9 2731.52ZM1013.83 2795.6C1012.5 2795.6 1011.31 2795.25 1010.27 2794.56C1009.26 2793.84 1008.41 2792.88 1007.71 2791.68C1007.02 2790.48 1006.49 2789.09 1006.11 2787.52C1005.77 2785.92 1005.59 2784.24 1005.59 2782.48C1005.59 2780.61 1005.79 2778.81 1006.19 2777.08C1006.62 2775.35 1007.21 2773.81 1007.95 2772.48C1008.73 2771.12 1009.66 2770.04 1010.75 2769.24C1011.85 2768.44 1013.07 2768.04 1014.43 2768.04C1015.69 2768.04 1016.82 2768.41 1017.83 2769.16C1018.87 2769.88 1019.75 2770.85 1020.47 2772.08C1021.22 2773.31 1021.79 2774.73 1022.19 2776.36C1022.59 2777.96 1022.79 2779.63 1022.79 2781.36C1022.79 2783.12 1022.59 2784.85 1022.19 2786.56C1021.79 2788.27 1021.21 2789.79 1020.43 2791.12C1019.66 2792.45 1018.71 2793.53 1017.59 2794.36C1016.5 2795.19 1015.25 2795.6 1013.83 2795.6ZM1014.43 2793.88C1015.47 2793.88 1016.3 2793.59 1016.91 2793C1017.55 2792.39 1018.05 2791.57 1018.39 2790.56C1018.77 2789.55 1019.01 2788.39 1019.11 2787.08C1019.25 2785.75 1019.31 2784.36 1019.31 2782.92C1019.31 2781.69 1019.23 2780.32 1019.07 2778.8C1018.94 2777.28 1018.66 2775.85 1018.23 2774.52C1017.81 2773.19 1017.19 2772.07 1016.39 2771.16C1015.62 2770.25 1014.61 2769.8 1013.35 2769.8C1012.55 2769.8 1011.89 2770.16 1011.35 2770.88C1010.82 2771.57 1010.38 2772.47 1010.03 2773.56C1009.71 2774.65 1009.47 2775.85 1009.31 2777.16C1009.18 2778.44 1009.11 2779.68 1009.11 2780.88C1009.11 2782.91 1009.22 2784.72 1009.43 2786.32C1009.65 2787.92 1009.97 2789.28 1010.39 2790.4C1010.85 2791.52 1011.41 2792.39 1012.07 2793C1012.74 2793.59 1013.53 2793.88 1014.43 2793.88ZM1028.52 2795C1027.98 2795 1027.46 2795.01 1026.96 2795.04C1026.48 2795.07 1026.04 2795.11 1025.64 2795.16L1025.48 2794.08C1027.26 2792.32 1028.9 2790.61 1030.4 2788.96C1031.92 2787.31 1033.22 2785.71 1034.32 2784.16C1035.44 2782.59 1036.3 2781.04 1036.92 2779.52C1037.56 2778 1037.88 2776.49 1037.88 2775C1037.88 2773.4 1037.44 2772.21 1036.56 2771.44C1035.68 2770.64 1034.42 2770.24 1032.8 2770.24C1031.28 2770.24 1030.13 2770.52 1029.36 2771.08C1028.61 2771.61 1028.24 2772.37 1028.24 2773.36C1029.14 2773.63 1029.6 2774.12 1029.6 2774.84C1029.6 2776.15 1029.04 2776.8 1027.92 2776.8C1026.82 2776.8 1026.28 2775.93 1026.28 2774.2C1026.28 2772.2 1026.94 2770.68 1028.28 2769.64C1029.61 2768.6 1031.62 2768.08 1034.32 2768.08C1039.12 2768.08 1041.52 2770.29 1041.52 2774.72C1041.52 2776.24 1041.28 2777.68 1040.8 2779.04C1040.32 2780.4 1039.57 2781.76 1038.56 2783.12C1037.57 2784.45 1036.3 2785.83 1034.76 2787.24C1033.24 2788.65 1031.42 2790.17 1029.32 2791.8H1036.44C1037.16 2791.8 1037.77 2791.76 1038.28 2791.68C1038.78 2791.6 1039.22 2791.44 1039.6 2791.2C1039.97 2790.96 1040.29 2790.63 1040.56 2790.2C1040.82 2789.75 1041.09 2789.16 1041.36 2788.44L1042.4 2788.6L1040.88 2795H1028.52Z" fill="black"/>
</svg>
